<svg width="290" height="135" viewBox="0 0 290 135" fill="none" xmlns="http://www.w3.org/2000/svg">
<path d="M49.7831 26.4972C46.1123 36.5827 36.4471 42.3239 28.1953 39.3205C19.9435 36.3171 16.2298 25.7064 19.9007 15.6208C23.5715 5.53531 33.2367 -0.205881 41.4885 2.79753C49.7403 5.80094 53.4539 16.4116 49.7831 26.4972Z" fill="#5FDA9F"/>
<path d="M22.1031 12.3424C-0.800844 45.7145 7.18785 120.641 6.37975 129.473M49.7831 26.4972C46.1123 36.5827 36.4471 42.3239 28.1953 39.3205C19.9435 36.3171 16.2298 25.7064 19.9007 15.6208C23.5715 5.53531 33.2367 -0.205881 41.4885 2.79753C49.7403 5.80094 53.4539 16.4116 49.7831 26.4972Z" stroke="#5FDA9F"/>
<path d="M44.5063 25.8594C37.9978 34.2816 14.2659 78.5874 11.0063 92.3594" stroke="#5FDA9F" stroke-width="10"/>
<path d="M29.0063 34.8594C22.4978 43.2816 19.2659 54.0874 16.0063 67.8594" stroke="#5FDA9F" stroke-width="10"/>
<path d="M10.5063 89.3594C10.5063 96.3594 9.00634 120.859 11.5063 123.359" stroke="#5FDA9F" stroke-width="9"/>
<path d="M76.4084 43.6125C71.042 52.9074 60.5267 56.883 52.9218 52.4923C45.3169 48.1016 43.5023 37.0073 48.8687 27.7124C54.2351 18.4175 64.7504 14.4419 72.3553 18.8326C79.9602 23.2233 81.7748 34.3176 76.4084 43.6125Z" fill="#FFA269"/>
<path d="M50.1933 26.1224C17.6342 64.5824 6.01921 126.265 6.37976 131.063M75.164 46.0859C33.0905 80.9893 6.36928 124.524 6.2031 131.946M76.4084 43.6125C71.042 52.9074 60.5267 56.883 52.9218 52.4923C45.3169 48.1016 43.5023 37.0073 48.8687 27.7124C54.2351 18.4175 64.7504 14.4419 72.3553 18.8326C79.9602 23.2233 81.7748 34.3176 76.4084 43.6125Z" stroke="#FFA269"/>
<path d="M98.882 66.5734C91.9831 74.7952 80.9372 76.8845 74.2103 71.2399C67.4834 65.5954 67.6228 54.3545 74.5217 46.1327C81.4206 37.9108 92.4665 35.8216 99.1934 41.4661C105.92 47.1107 105.781 58.3516 98.882 66.5734Z" fill="#7DCFFF"/>
<path d="M91.5336 72.4093C60.3804 88.7953 10.6583 119.199 5.84975 133.183M98.882 66.5734C91.9831 74.7952 80.9372 76.8845 74.2103 71.2399C67.4834 65.5954 67.6228 54.3545 74.5217 46.1327C81.4206 37.9108 92.4665 35.8216 99.1934 41.4661C105.92 47.1107 105.781 58.3516 98.882 66.5734Z" stroke="#7DCFFF"/>
<path d="M26.5415 17.1793C15.8471 24.495 9.21099 76.7511 11.0063 91.8594" stroke="#5FDA9F" stroke-width="10"/>
<path d="M54.5063 30.3594C43.1559 38.2358 20.7808 85.4007 19.0063 97.3594" stroke="#FFA269" stroke-width="10"/>
<path d="M68.0063 46.3594C57.4081 52.9199 27.2664 85.9196 19.249 98.1179" stroke="#FFA269" stroke-width="10"/>
<path d="M17.0063 95.8594C11.038 115.472 15.6641 102.101 12.0063 114.359" stroke="#FFA269" stroke-width="5"/>
<path d="M22.5063 97.8594C18.8577 107.449 17.3828 102.388 11.0063 115.859" stroke="#FFA269" stroke-width="5"/>
<path d="M14.3096 111.359C9.80956 120.359 14.7269 110.321 8.3504 123.793" stroke="#FFA269" stroke-width="2"/>
<path d="M9.45574 121.359C7.76923 124.889 9.5616 120.927 7.3504 126.299" stroke="#FFA269"/>
<path d="M13.0063 108.859C7.29206 118.015 12.1553 110.651 8.3504 123.793" stroke="#FFA269" stroke-width="2"/>
<path d="M20.5063 92.8594C16.6789 102.186 21.6987 90.4911 15.5472 104.293" stroke="#FFA269" stroke-width="5"/>
<path d="M58.7636 41.3629C52.6143 45.5141 34.8149 65.8933 30.0063 73.3588" stroke="#FFA269" stroke-width="10"/>
<path d="M80.5063 46.8594C73.8954 50.678 39.9774 85.4798 26.5063 106.359" stroke="#7DCFFF" stroke-width="10"/>
<path d="M91.0063 65.8594C69.3094 79.3865 42.5063 93.3594 27.0063 106.359" stroke="#7DCFFF" stroke-width="10"/>
<path d="M29.5063 107.359C24.5063 109.859 20.0063 113.359 17.0063 116.332" stroke="#7DCFFF" stroke-width="5"/>
<path d="M25.5063 103.359C22.5061 107.359 18.5063 113.859 16.5063 116.359" stroke="#7DCFFF" stroke-width="5"/>
<path d="M15.5063 114.359C12.5061 118.359 8.50634 126.859 7.50634 129.859" stroke="#7DCFFF"/>
<path d="M16.0063 115.359C13.0063 119.359 11.5063 123.859 9.00634 126.859" stroke="#7DCFFF"/>
<path d="M17.0063 116.359C13.5063 120.359 13.0063 121.859 10.5063 124.859" stroke="#7DCFFF" stroke-width="2"/>
<path d="M23.0063 113.359C19.0063 116.859 16.0063 119.359 13.0063 122.359" stroke="#7DCFFF" stroke-width="2"/>
<path d="M76.7917 61.1138C68.9379 69.7916 56.4008 79.4503 54.0063 86.941" stroke="#7DCFFF" stroke-width="10"/>
<path d="M120.499 58.24C118.419 58.24 116.419 57.9067 114.499 57.24C112.605 56.5467 111.139 55.6667 110.099 54.6L111.259 52.32C112.245 53.28 113.565 54.0933 115.219 54.76C116.899 55.4 118.659 55.72 120.499 55.72C122.259 55.72 123.685 55.5067 124.779 55.08C125.899 54.6267 126.712 54.0267 127.219 53.28C127.752 52.5333 128.019 51.7067 128.019 50.8C128.019 49.7067 127.699 48.8267 127.059 48.16C126.445 47.4933 125.632 46.9733 124.619 46.6C123.605 46.2 122.485 45.8533 121.259 45.56C120.032 45.2667 118.805 44.96 117.579 44.64C116.352 44.2933 115.219 43.84 114.179 43.28C113.165 42.72 112.339 41.9867 111.699 41.08C111.085 40.1467 110.779 38.9333 110.779 37.44C110.779 36.0533 111.139 34.7867 111.859 33.64C112.605 32.4667 113.739 31.5333 115.259 30.84C116.779 30.12 118.725 29.76 121.099 29.76C122.672 29.76 124.232 29.9867 125.779 30.44C127.325 30.8667 128.659 31.4667 129.779 32.24L128.779 34.6C127.579 33.8 126.299 33.2133 124.939 32.84C123.605 32.4667 122.312 32.28 121.059 32.28C119.379 32.28 117.992 32.5067 116.899 32.96C115.805 33.4133 114.992 34.0267 114.459 34.8C113.952 35.5467 113.699 36.4 113.699 37.36C113.699 38.4533 114.005 39.3333 114.619 40C115.259 40.6667 116.085 41.1867 117.099 41.56C118.139 41.9333 119.272 42.2667 120.499 42.56C121.725 42.8533 122.939 43.1733 124.139 43.52C125.365 43.8667 126.485 44.32 127.499 44.88C128.539 45.4133 129.365 46.1333 129.979 47.04C130.619 47.9467 130.939 49.1333 130.939 50.6C130.939 51.96 130.565 53.2267 129.819 54.4C129.072 55.5467 127.925 56.48 126.379 57.2C124.859 57.8933 122.899 58.24 120.499 58.24ZM149.548 58.24C147.441 58.24 145.495 57.8933 143.708 57.2C141.921 56.48 140.375 55.48 139.068 54.2C137.761 52.92 136.735 51.4133 135.988 49.68C135.268 47.9467 134.908 46.0533 134.908 44C134.908 41.9467 135.268 40.0533 135.988 38.32C136.735 36.5867 137.761 35.08 139.068 33.8C140.401 32.52 141.961 31.5333 143.748 30.84C145.535 30.12 147.481 29.76 149.588 29.76C151.615 29.76 153.521 30.1067 155.308 30.8C157.095 31.4667 158.601 32.48 159.828 33.84L157.948 35.72C156.801 34.5467 155.535 33.7067 154.148 33.2C152.761 32.6667 151.268 32.4 149.668 32.4C147.988 32.4 146.428 32.6933 144.988 33.28C143.548 33.84 142.295 34.6533 141.228 35.72C140.161 36.76 139.321 37.9867 138.708 39.4C138.121 40.7867 137.828 42.32 137.828 44C137.828 45.68 138.121 47.2267 138.708 48.64C139.321 50.0267 140.161 51.2533 141.228 52.32C142.295 53.36 143.548 54.1733 144.988 54.76C146.428 55.32 147.988 55.6 149.668 55.6C151.268 55.6 152.761 55.3333 154.148 54.8C155.535 54.2667 156.801 53.4133 157.948 52.24L159.828 54.12C158.601 55.48 157.095 56.5067 155.308 57.2C153.521 57.8933 151.601 58.24 149.548 58.24ZM186.618 30H189.538V58H186.618V30ZM169.098 58H166.138V30H169.098V58ZM186.898 45.08H168.778V42.48H186.898V45.08ZM210.917 58.24C208.811 58.24 206.851 57.8933 205.037 57.2C203.251 56.48 201.691 55.48 200.357 54.2C199.051 52.8933 198.024 51.3867 197.277 49.68C196.557 47.9467 196.197 46.0533 196.197 44C196.197 41.9467 196.557 40.0667 197.277 38.36C198.024 36.6267 199.051 35.12 200.357 33.84C201.691 32.5333 203.251 31.5333 205.037 30.84C206.824 30.12 208.784 29.76 210.917 29.76C213.024 29.76 214.971 30.12 216.757 30.84C218.544 31.5333 220.091 32.52 221.397 33.8C222.731 35.08 223.757 36.5867 224.477 38.32C225.224 40.0533 225.597 41.9467 225.597 44C225.597 46.0533 225.224 47.9467 224.477 49.68C223.757 51.4133 222.731 52.92 221.397 54.2C220.091 55.48 218.544 56.48 216.757 57.2C214.971 57.8933 213.024 58.24 210.917 58.24ZM210.917 55.6C212.597 55.6 214.144 55.32 215.557 54.76C216.997 54.1733 218.237 53.36 219.277 52.32C220.344 51.2533 221.171 50.0267 221.757 48.64C222.344 47.2267 222.637 45.68 222.637 44C222.637 42.32 222.344 40.7867 221.757 39.4C221.171 37.9867 220.344 36.76 219.277 35.72C218.237 34.6533 216.997 33.84 215.557 33.28C214.144 32.6933 212.597 32.4 210.917 32.4C209.237 32.4 207.677 32.6933 206.237 33.28C204.797 33.84 203.544 34.6533 202.477 35.72C201.437 36.76 200.611 37.9867 199.997 39.4C199.411 40.7867 199.117 42.32 199.117 44C199.117 45.6533 199.411 47.1867 199.997 48.6C200.611 50.0133 201.437 51.2533 202.477 52.32C203.544 53.36 204.797 54.1733 206.237 54.76C207.677 55.32 209.237 55.6 210.917 55.6ZM244.472 58.24C242.365 58.24 240.405 57.8933 238.592 57.2C236.805 56.48 235.245 55.48 233.912 54.2C232.605 52.8933 231.579 51.3867 230.832 49.68C230.112 47.9467 229.752 46.0533 229.752 44C229.752 41.9467 230.112 40.0667 230.832 38.36C231.579 36.6267 232.605 35.12 233.912 33.84C235.245 32.5333 236.805 31.5333 238.592 30.84C240.379 30.12 242.339 29.76 244.472 29.76C246.579 29.76 248.525 30.12 250.312 30.84C252.099 31.5333 253.645 32.52 254.952 33.8C256.285 35.08 257.312 36.5867 258.032 38.32C258.779 40.0533 259.152 41.9467 259.152 44C259.152 46.0533 258.779 47.9467 258.032 49.68C257.312 51.4133 256.285 52.92 254.952 54.2C253.645 55.48 252.099 56.48 250.312 57.2C248.525 57.8933 246.579 58.24 244.472 58.24ZM244.472 55.6C246.152 55.6 247.699 55.32 249.112 54.76C250.552 54.1733 251.792 53.36 252.832 52.32C253.899 51.2533 254.725 50.0267 255.312 48.64C255.899 47.2267 256.192 45.68 256.192 44C256.192 42.32 255.899 40.7867 255.312 39.4C254.725 37.9867 253.899 36.76 252.832 35.72C251.792 34.6533 250.552 33.84 249.112 33.28C247.699 32.6933 246.152 32.4 244.472 32.4C242.792 32.4 241.232 32.6933 239.792 33.28C238.352 33.84 237.099 34.6533 236.032 35.72C234.992 36.76 234.165 37.9867 233.552 39.4C232.965 40.7867 232.672 42.32 232.672 44C232.672 45.6533 232.965 47.1867 233.552 48.6C234.165 50.0133 234.992 51.2533 236.032 52.32C237.099 53.36 238.352 54.1733 239.792 54.76C241.232 55.32 242.792 55.6 244.472 55.6ZM265.787 58V30H268.747V55.44H284.427V58H265.787ZM124.087 107V79H136.167C139.287 79 141.701 79.6267 143.407 80.88C145.141 82.1333 146.007 83.9067 146.007 86.2C146.007 87.72 145.647 89 144.927 90.04C144.234 91.08 143.274 91.8667 142.047 92.4C140.847 92.9333 139.527 93.2 138.087 93.2L138.767 92.24C140.554 92.24 142.087 92.52 143.367 93.08C144.674 93.6133 145.687 94.4267 146.407 95.52C147.127 96.5867 147.487 97.92 147.487 99.52C147.487 101.893 146.607 103.733 144.847 105.04C143.114 106.347 140.487 107 136.967 107H124.087ZM127.047 104.56H136.927C139.381 104.56 141.261 104.147 142.567 103.32C143.874 102.467 144.527 101.12 144.527 99.28C144.527 97.4667 143.874 96.1467 142.567 95.32C141.261 94.4667 139.381 94.04 136.927 94.04H126.727V91.6H135.967C138.207 91.6 139.941 91.1733 141.167 90.32C142.421 89.4667 143.047 88.2 143.047 86.52C143.047 84.8133 142.421 83.5467 141.167 82.72C139.941 81.8667 138.207 81.44 135.967 81.44H127.047V104.56ZM166.484 107.24C164.377 107.24 162.417 106.893 160.604 106.2C158.817 105.48 157.257 104.48 155.924 103.2C154.617 101.893 153.59 100.387 152.844 98.68C152.124 96.9467 151.764 95.0533 151.764 93C151.764 90.9467 152.124 89.0667 152.844 87.36C153.59 85.6267 154.617 84.12 155.924 82.84C157.257 81.5333 158.817 80.5333 160.604 79.84C162.39 79.12 164.35 78.76 166.484 78.76C168.59 78.76 170.537 79.12 172.324 79.84C174.11 80.5333 175.657 81.52 176.964 82.8C178.297 84.08 179.324 85.5867 180.044 87.32C180.79 89.0533 181.164 90.9467 181.164 93C181.164 95.0533 180.79 96.9467 180.044 98.68C179.324 100.413 178.297 101.92 176.964 103.2C175.657 104.48 174.11 105.48 172.324 106.2C170.537 106.893 168.59 107.24 166.484 107.24ZM166.484 104.6C168.164 104.6 169.71 104.32 171.124 103.76C172.564 103.173 173.804 102.36 174.844 101.32C175.91 100.253 176.737 99.0267 177.324 97.64C177.91 96.2267 178.204 94.68 178.204 93C178.204 91.32 177.91 89.7867 177.324 88.4C176.737 86.9867 175.91 85.76 174.844 84.72C173.804 83.6533 172.564 82.84 171.124 82.28C169.71 81.6933 168.164 81.4 166.484 81.4C164.804 81.4 163.244 81.6933 161.804 82.28C160.364 82.84 159.11 83.6533 158.044 84.72C157.004 85.76 156.177 86.9867 155.564 88.4C154.977 89.7867 154.684 91.32 154.684 93C154.684 94.6533 154.977 96.1867 155.564 97.6C156.177 99.0133 157.004 100.253 158.044 101.32C159.11 102.36 160.364 103.173 161.804 103.76C163.244 104.32 164.804 104.6 166.484 104.6ZM182.928 107L195.728 79H198.648L211.448 107H208.328L196.568 80.72H197.768L186.008 107H182.928ZM187.968 99.52L188.848 97.12H205.128L206.008 99.52H187.968ZM216.08 107V79H226.56C228.933 79 230.973 79.3867 232.68 80.16C234.386 80.9067 235.693 82 236.6 83.44C237.533 84.8533 238 86.5733 238 88.6C238 90.5733 237.533 92.28 236.6 93.72C235.693 95.1333 234.386 96.2267 232.68 97C230.973 97.7467 228.933 98.12 226.56 98.12H217.72L219.04 96.76V107H216.08ZM235.2 107L228 96.84H231.2L238.44 107H235.2ZM219.04 97L217.72 95.6H226.48C229.28 95.6 231.4 94.9867 232.84 93.76C234.306 92.5333 235.04 90.8133 235.04 88.6C235.04 86.36 234.306 84.6267 232.84 83.4C231.4 82.1733 229.28 81.56 226.48 81.56H217.72L219.04 80.16V97ZM244.986 107V79H256.386C259.372 79 261.986 79.6 264.226 80.8C266.492 81.9733 268.252 83.6133 269.506 85.72C270.759 87.8267 271.386 90.2533 271.386 93C271.386 95.7467 270.759 98.1733 269.506 100.28C268.252 102.387 266.492 104.04 264.226 105.24C261.986 106.413 259.372 107 256.386 107H244.986ZM247.946 104.44H256.226C258.706 104.44 260.852 103.96 262.666 103C264.506 102.013 265.932 100.667 266.946 98.96C267.959 97.2267 268.466 95.24 268.466 93C268.466 90.7333 267.959 88.7467 266.946 87.04C265.932 85.3333 264.506 84 262.666 83.04C260.852 82.0533 258.706 81.56 256.226 81.56H247.946V104.44Z" fill="white"/>
</svg>
