<svg width="110" height="140" viewBox="0 0 110 140" fill="none" xmlns="http://www.w3.org/2000/svg">
<path d="M50.7831 28.4972C47.1123 38.5827 37.4471 44.3239 29.1953 41.3205C20.9435 38.3171 17.2298 27.7064 20.9007 17.6208C24.5715 7.53531 34.2367 1.79412 42.4885 4.79753C50.7403 7.80094 54.4539 18.4116 50.7831 28.4972Z" fill="#5FDA9F"/>
<path d="M23.1031 14.3424C0.199156 47.7145 8.18785 122.641 7.37975 131.473M50.7831 28.4972C47.1123 38.5827 37.4471 44.3239 29.1953 41.3205C20.9435 38.3171 17.2298 27.7064 20.9007 17.6208C24.5715 7.53531 34.2367 1.79412 42.4885 4.79753C50.7403 7.80094 54.4539 18.4116 50.7831 28.4972Z" stroke="#5FDA9F"/>
<path d="M45.5063 27.8594C38.9978 36.2816 15.2659 80.5874 12.0063 94.3594" stroke="#5FDA9F" stroke-width="10"/>
<path d="M30.0063 36.8594C23.4978 45.2816 20.2659 56.0874 17.0063 69.8594" stroke="#5FDA9F" stroke-width="10"/>
<path d="M11.5063 91.3594C11.5063 98.3594 10.0063 122.859 12.5063 125.359" stroke="#5FDA9F" stroke-width="9"/>
<path d="M77.4084 45.6125C72.042 54.9074 61.5267 58.883 53.9218 54.4923C46.3169 50.1016 44.5023 39.0073 49.8687 29.7124C55.2351 20.4175 65.7504 16.4419 73.3553 20.8326C80.9602 25.2233 82.7748 36.3176 77.4084 45.6125Z" fill="#FFA269"/>
<path d="M51.1933 28.1224C18.6342 66.5824 7.01921 128.265 7.37976 133.063M76.164 48.0858C34.0905 82.9893 7.36928 126.524 7.2031 133.946M77.4084 45.6125C72.042 54.9074 61.5267 58.883 53.9218 54.4923C46.3169 50.1016 44.5023 39.0073 49.8687 29.7124C55.2351 20.4175 65.7504 16.4419 73.3553 20.8326C80.9602 25.2233 82.7748 36.3176 77.4084 45.6125Z" stroke="#FFA269"/>
<path d="M99.882 68.5734C92.9831 76.7952 81.9372 78.8845 75.2103 73.2399C68.4834 67.5954 68.6228 56.3545 75.5217 48.1327C82.4206 39.9109 93.4665 37.8216 100.193 43.4662C106.92 49.1107 106.781 60.3516 99.882 68.5734Z" fill="#7DCFFF"/>
<path d="M92.5336 74.4093C61.3804 90.7953 11.6583 121.199 6.84975 135.183M99.882 68.5734C92.9831 76.7952 81.9372 78.8845 75.2103 73.2399C68.4834 67.5954 68.6228 56.3545 75.5217 48.1327C82.4206 39.9109 93.4665 37.8216 100.193 43.4662C106.92 49.1107 106.781 60.3516 99.882 68.5734Z" stroke="#7DCFFF"/>
<path d="M27.5415 19.1793C16.8471 26.495 10.211 78.7511 12.0063 93.8594" stroke="#5FDA9F" stroke-width="10"/>
<path d="M55.5063 32.3594C44.1559 40.2358 21.7808 87.4007 20.0063 99.3594" stroke="#FFA269" stroke-width="10"/>
<path d="M69.0063 48.3594C58.4081 54.9199 28.2664 87.9196 20.249 100.118" stroke="#FFA269" stroke-width="10"/>
<path d="M18.0063 97.8594C12.038 117.472 16.6641 104.101 13.0063 116.359" stroke="#FFA269" stroke-width="5"/>
<path d="M23.5063 99.8594C19.8577 109.449 18.3828 104.388 12.0063 117.859" stroke="#FFA269" stroke-width="5"/>
<path d="M15.3096 113.359C10.8096 122.359 15.7269 112.321 9.3504 125.793" stroke="#FFA269" stroke-width="2"/>
<path d="M10.4557 123.359C8.76923 126.889 10.5616 122.927 8.3504 128.299" stroke="#FFA269"/>
<path d="M14.0063 110.859C8.29206 120.015 13.1553 112.652 9.3504 125.793" stroke="#FFA269" stroke-width="2"/>
<path d="M21.5063 94.8594C17.6789 104.186 22.6987 92.4911 16.5472 106.293" stroke="#FFA269" stroke-width="5"/>
<path d="M59.7636 43.3629C53.6143 47.5141 35.8149 67.8933 31.0063 75.3588" stroke="#FFA269" stroke-width="10"/>
<path d="M81.5063 48.8594C74.8954 52.678 40.9774 87.4798 27.5063 108.359" stroke="#7DCFFF" stroke-width="10"/>
<path d="M92.0063 67.8594C70.3094 81.3865 43.5063 95.3594 28.0063 108.359" stroke="#7DCFFF" stroke-width="10"/>
<path d="M30.5063 109.359C25.5063 111.859 21.0063 115.359 18.0063 118.332" stroke="#7DCFFF" stroke-width="5"/>
<path d="M26.5063 105.359C23.5061 109.359 19.5063 115.859 17.5063 118.359" stroke="#7DCFFF" stroke-width="5"/>
<path d="M16.5063 116.359C13.5061 120.359 9.50634 128.859 8.50634 131.859" stroke="#7DCFFF"/>
<path d="M17.0063 117.359C14.0063 121.359 12.5063 125.859 10.0063 128.859" stroke="#7DCFFF"/>
<path d="M18.0063 118.359C14.5063 122.359 14.0063 123.859 11.5063 126.859" stroke="#7DCFFF" stroke-width="2"/>
<path d="M24.0063 115.359C20.0063 118.859 17.0063 121.359 14.0063 124.359" stroke="#7DCFFF" stroke-width="2"/>
<path d="M77.7917 63.1138C69.9379 71.7916 57.4008 81.4503 55.0063 88.941" stroke="#7DCFFF" stroke-width="10"/>
</svg>
