<svg width="377" height="411" viewBox="0 0 377 411" fill="none" xmlns="http://www.w3.org/2000/svg">
<path d="M318.364 -77.5566L712 -77.5565C745.137 -77.5564 772 -50.6935 772 -17.5565V59.9661V167.997C772 169.541 770.748 170.793 769.203 170.793V170.793C765.61 170.793 732.556 220.212 732.29 223.795C732.06 226.886 731.69 230.156 731.164 233.617C721.078 299.956 675.098 324.495 646.519 334.203C627.199 340.765 600.843 333.711 582.257 326.707C567.47 321.134 551.034 319.466 538.409 328.97C529.832 335.427 519.266 345.07 507.856 359.281C479.276 394.875 348 351 288.747 385.977C229.494 420.953 209.507 416.376 178.855 385.977C149.829 357.19 173.659 305.889 155.472 250.88C137.285 195.871 56.5915 217.723 24.7756 170.805C-10.7512 118.414 22.9071 58.7425 33.067 38.4308C52.12 0.339943 -20.3302 -36.305 5.72256 -68.2148C31.7753 -100.125 5.7226 -85.801 318.364 -77.5566Z" fill="#FFA269"/>
</svg>
